PathFileType	4	(X/Y/Z)	 D:\Google Drive\Share to the world\OpenSim\ScaleTool\TRC\Walk_Mkrs3.trc
DataRate	CameraRate	NumFrames	NumMarkers	Units	OrigDataRate	OrigDataStartFrame	OrigNumFrames
100	100	10	34	m	100	154	614
Frame#	time	C7			T10			CLAV			STRN			LSHO			LELB			LWRA			LWRB			LFIN			RSHO			RELB			RWRA			RWRB			RFIN			LASI			RASI			LPSI			RPSI			LTHI			LKNE			LTIB			LANK			LHEE			LTOE			RTHI			RKNE			RTIB			RANK			RHEE			RTOE			RPINKY			LPINKY			INRKNE			INLKNE			
		X1	Y1	Z1	X2	Y2	Z2	X3	Y3	Z3	X4	Y4	Z4	X5	Y5	Z5	X6	Y6	Z6	X7	Y7	Z7	X8	Y8	Z8	X9	Y9	Z9	X10	Y10	Z10	X11	Y11	Z11	X12	Y12	Z12	X13	Y13	Z13	X14	Y14	Z14	X15	Y15	Z15	X16	Y16	Z16	X17	Y17	Z17	X18	Y18	Z18	X19	Y19	Z19	X20	Y20	Z20	X21	Y21	Z21	X22	Y22	Z22	X23	Y23	Z23	X24	Y24	Z24	X25	Y25	Z25	X26	Y26	Z26	X27	Y27	Z27	X28	Y28	Z28	X29	Y29	Z29	X30	Y30	Z30	X31	Y31	Z31	X32	Y32	Z32	X33	Y33	Z33	X34	Y34	Z34	

154	1.5300	-2.087290	1.498360	0.187690	-2.112690	1.249030	0.188700	-1.940920	1.401750	0.199600	-1.903910	1.250720	0.199500	-2.015200	1.461700	0.013550	-2.007860	1.146580	-0.064270	-1.909240	0.910250	-0.024400	-1.962150	0.902020	-0.065750	-1.915080	0.834190	-0.069690	-2.032570	1.470500	0.366040	-2.058280	1.157000	0.476300	-1.946070	0.932640	0.443300	-1.986880	0.925720	0.487550	-1.947650	0.863820	0.486080	-1.919140	0.973960	0.081580	-1.938230	0.979150	0.348120	-2.080340	1.086290	0.149850	-2.083510	1.087610	0.236590	-2.008700	0.678120	0.035820	-2.054400	0.493270	0.056130	-2.087920	0.295610	0.043250	-2.076530	0.088750	0.085100	-2.126870	0.099040	0.128210	-1.923670	0.049610	0.132300	-2.025230	0.682430	0.373790	-2.043270	0.493770	0.352710	-2.065320	0.317960	0.363390	-2.055310	0.089590	0.315740	-2.107170	0.107650	0.274180	-1.899940	0.049340	0.281610	-1.953350	0.041710	0.350360	-1.974310	0.041130	0.049230	-2.042600	0.491350	0.250540	-2.065840	0.483710	0.159390	
155	1.5400	-2.087230	1.498370	0.187900	-2.112640	1.249040	0.188890	-1.940900	1.401750	0.199810	-1.903880	1.250690	0.199660	-2.015130	1.461720	0.013750	-2.007820	1.146600	-0.064040	-1.909260	0.910260	-0.024180	-1.962170	0.902040	-0.065540	-1.915140	0.834200	-0.069470	-2.032570	1.470460	0.366250	-2.058220	1.156930	0.476460	-1.945940	0.932640	0.443500	-1.986800	0.925680	0.487730	-1.947570	0.863780	0.486260	-1.919180	0.974000	0.081670	-1.938190	0.979100	0.348240	-2.080250	1.086360	0.150040	-2.083490	1.087610	0.236810	-2.008720	0.678150	0.035900	-2.054380	0.493290	0.056200	-2.087900	0.295640	0.043300	-2.076530	0.088770	0.085110	-2.126870	0.099050	0.128230	-1.923670	0.049610	0.132300	-2.025230	0.682400	0.373890	-2.043310	0.493740	0.352820	-2.065340	0.317930	0.363470	-2.055320	0.089580	0.315760	-2.107170	0.107650	0.274200	-1.899940	0.049340	0.281610	-1.953350	0.041700	0.350370	-1.974300	0.041130	0.049230	-2.042670	0.491340	0.250660	-2.065800	0.483710	0.159470	
156	1.5500	-2.087180	1.498380	0.188090	-2.112590	1.249060	0.189080	-1.940870	1.401750	0.200010	-1.903840	1.250670	0.199830	-2.015060	1.461760	0.013950	-2.007780	1.146620	-0.063830	-1.909290	0.910270	-0.023960	-1.962210	0.902060	-0.065350	-1.915210	0.834210	-0.069240	-2.032560	1.470430	0.366450	-2.058140	1.156870	0.476610	-1.945780	0.932650	0.443680	-1.986700	0.925640	0.487900	-1.947460	0.863750	0.486420	-1.919220	0.974050	0.081750	-1.938160	0.979030	0.348350	-2.080160	1.086440	0.150250	-2.083470	1.087610	0.237040	-2.008740	0.678190	0.035980	-2.054340	0.493310	0.056280	-2.087880	0.295660	0.043350	-2.076530	0.088780	0.085120	-2.126860	0.099060	0.128240	-1.923670	0.049610	0.132300	-2.025230	0.682380	0.374010	-2.043360	0.493700	0.352940	-2.065370	0.317900	0.363560	-2.055320	0.089560	0.315780	-2.107170	0.107650	0.274230	-1.899950	0.049340	0.281610	-1.953350	0.041700	0.350380	-1.974300	0.041140	0.049250	-2.042760	0.491320	0.250780	-2.065750	0.483720	0.159560	
157	1.5600	-2.087120	1.498390	0.188280	-2.112530	1.249070	0.189270	-1.940830	1.401750	0.200200	-1.903790	1.250650	0.200000	-2.014980	1.461790	0.014130	-2.007740	1.146640	-0.063630	-1.909330	0.910270	-0.023750	-1.962240	0.902070	-0.065160	-1.915280	0.834210	-0.069030	-2.032560	1.470400	0.366640	-2.058060	1.156810	0.476750	-1.945600	0.932670	0.443850	-1.986580	0.925620	0.488050	-1.947320	0.863730	0.486570	-1.919280	0.974100	0.081840	-1.938130	0.978950	0.348460	-2.080090	1.086520	0.150470	-2.083440	1.087620	0.237280	-2.008760	0.678230	0.036060	-2.054300	0.493340	0.056360	-2.087850	0.295690	0.043410	-2.076520	0.088790	0.085130	-2.126850	0.099070	0.128260	-1.923670	0.049610	0.132300	-2.025230	0.682350	0.374130	-2.043420	0.493670	0.353080	-2.065400	0.317870	0.363670	-2.055320	0.089550	0.315810	-2.107170	0.107650	0.274270	-1.899950	0.049330	0.281600	-1.953350	0.041690	0.350390	-1.974300	0.041140	0.049260	-2.042860	0.491290	0.250930	-2.065680	0.483740	0.159660	
158	1.5700	-2.087060	1.498410	0.188460	-2.112470	1.249080	0.189460	-1.940800	1.401760	0.200390	-1.903730	1.250630	0.200170	-2.014900	1.461830	0.014310	-2.007710	1.146660	-0.063440	-1.909380	0.910270	-0.023550	-1.962270	0.902090	-0.064980	-1.915350	0.834200	-0.068820	-2.032560	1.470380	0.366830	-2.057970	1.156750	0.476890	-1.945400	0.932700	0.444010	-1.986450	0.925610	0.488180	-1.947150	0.863720	0.486710	-1.919340	0.974150	0.081920	-1.938110	0.978870	0.348570	-2.080020	1.086600	0.150700	-2.083420	1.087630	0.237530	-2.008770	0.678280	0.036140	-2.054240	0.493360	0.056440	-2.087810	0.295710	0.043470	-2.076520	0.088810	0.085140	-2.126850	0.099080	0.128270	-1.923670	0.049600	0.132310	-2.025240	0.682320	0.374260	-2.043480	0.493630	0.353220	-2.065420	0.317850	0.363800	-2.055320	0.089540	0.315840	-2.107180	0.107660	0.274320	-1.899960	0.049330	0.281600	-1.953350	0.041680	0.350400	-1.974300	0.041150	0.049280	-2.042990	0.491270	0.251080	-2.065590	0.483750	0.159750	
159	1.5800	-2.086990	1.498420	0.188630	-2.112400	1.249100	0.189650	-1.940750	1.401770	0.200560	-1.903670	1.250620	0.200340	-2.014820	1.461860	0.014470	-2.007680	1.146670	-0.063270	-1.909430	0.910260	-0.023360	-1.962310	0.902090	-0.064810	-1.915430	0.834190	-0.068630	-2.032550	1.470360	0.367010	-2.057870	1.156710	0.477020	-1.945190	0.932720	0.444150	-1.986300	0.925610	0.488300	-1.946970	0.863730	0.486830	-1.919420	0.974190	0.082000	-1.938090	0.978780	0.348680	-2.079970	1.086690	0.150940	-2.083390	1.087640	0.237770	-2.008790	0.678330	0.036210	-2.054170	0.493390	0.056520	-2.087760	0.295740	0.043540	-2.076510	0.088820	0.085150	-2.126830	0.099090	0.128290	-1.923670	0.049600	0.132320	-2.025250	0.682280	0.374400	-2.043540	0.493590	0.353370	-2.065450	0.317820	0.363930	-2.055310	0.089530	0.315890	-2.107190	0.107670	0.274380	-1.899980	0.049320	0.281600	-1.953350	0.041680	0.350420	-1.974290	0.041150	0.049310	-2.043120	0.491240	0.251230	-2.065500	0.483770	0.159850	
160	1.5900	-2.086920	1.498430	0.188790	-2.112330	1.249110	0.189850	-1.940710	1.401780	0.200720	-1.903600	1.250610	0.200500	-2.014750	1.461890	0.014630	-2.007660	1.146690	-0.063100	-1.909480	0.910260	-0.023180	-1.962350	0.902100	-0.064640	-1.915500	0.834180	-0.068450	-2.032530	1.470370	0.367180	-2.057760	1.156670	0.477150	-1.944970	0.932750	0.444280	-1.986130	0.925620	0.488400	-1.946770	0.863740	0.486930	-1.919490	0.974240	0.082070	-1.938070	0.978680	0.348770	-2.079920	1.086770	0.151190	-2.083360	1.087660	0.238010	-2.008800	0.678380	0.036290	-2.054100	0.493420	0.056600	-2.087710	0.295770	0.043610	-2.076510	0.088840	0.085170	-2.126820	0.099100	0.128310	-1.923670	0.049590	0.132330	-2.025260	0.682240	0.374540	-2.043610	0.493550	0.353530	-2.065470	0.317790	0.364070	-2.055300	0.089520	0.315940	-2.107200	0.107690	0.274450	-1.899990	0.049320	0.281600	-1.953350	0.041670	0.350430	-1.974290	0.041160	0.049330	-2.043270	0.491200	0.251390	-2.065390	0.483790	0.159950	
161	1.6000	-2.086840	1.498450	0.188940	-2.112250	1.249120	0.190050	-1.940660	1.401800	0.200870	-1.903530	1.250610	0.200670	-2.014680	1.461920	0.014780	-2.007650	1.146700	-0.062950	-1.909540	0.910240	-0.023020	-1.962390	0.902100	-0.064490	-1.915570	0.834160	-0.068290	-2.032500	1.470380	0.367340	-2.057640	1.156640	0.477270	-1.944750	0.932790	0.444390	-1.985960	0.925640	0.488480	-1.946550	0.863770	0.487020	-1.919560	0.974290	0.082150	-1.938050	0.978590	0.348860	-2.079880	1.086840	0.151420	-2.083330	1.087670	0.238230	-2.008800	0.678430	0.036360	-2.054020	0.493450	0.056680	-2.087650	0.295800	0.043670	-2.076500	0.088850	0.085180	-2.126810	0.099110	0.128330	-1.923670	0.049590	0.132340	-2.025260	0.682190	0.374680	-2.043680	0.493520	0.353680	-2.065500	0.317770	0.364220	-2.055300	0.089510	0.315990	-2.107220	0.107690	0.274530	-1.900000	0.049310	0.281600	-1.953350	0.041660	0.350450	-1.974290	0.041160	0.049360	-2.043420	0.491180	0.251540	-2.065290	0.483810	0.160040	
162	1.6100	-2.086760	1.498460	0.189100	-2.112170	1.249140	0.190260	-1.940610	1.401810	0.201020	-1.903460	1.250610	0.200830	-2.014610	1.461930	0.014930	-2.007640	1.146710	-0.062810	-1.909590	0.910220	-0.022870	-1.962440	0.902090	-0.064340	-1.915630	0.834140	-0.068140	-2.032450	1.470400	0.367500	-2.057520	1.156630	0.477380	-1.944510	0.932820	0.444500	-1.985770	0.925670	0.488560	-1.946320	0.863810	0.487090	-1.919620	0.974330	0.082220	-1.938040	0.978510	0.348950	-2.079840	1.086900	0.151650	-2.083300	1.087680	0.238450	-2.008810	0.678480	0.036430	-2.053930	0.493480	0.056770	-2.087580	0.295830	0.043740	-2.076490	0.088870	0.085200	-2.126800	0.099120	0.128350	-1.923670	0.049590	0.132360	-2.025270	0.682140	0.374820	-2.043750	0.493480	0.353830	-2.065530	0.317750	0.364360	-2.055290	0.089500	0.316030	-2.107230	0.107700	0.274590	-1.900020	0.049310	0.281590	-1.953350	0.041650	0.350460	-1.974280	0.041170	0.049390	-2.043580	0.491150	0.251680	-2.065180	0.483830	0.160130	
163	1.6200	-2.086680	1.498480	0.189240	-2.112090	1.249150	0.190460	-1.940560	1.401820	0.201160	-1.903390	1.250620	0.200990	-2.014550	1.461940	0.015070	-2.007640	1.146710	-0.062680	-1.909640	0.910200	-0.022730	-1.962500	0.902080	-0.064200	-1.915690	0.834110	-0.068020	-2.032390	1.470430	0.367650	-2.057380	1.156620	0.477490	-1.944270	0.932850	0.444590	-1.985560	0.925700	0.488610	-1.946080	0.863850	0.487150	-1.919680	0.974380	0.082300	-1.938010	0.978420	0.349030	-2.079800	1.086960	0.151870	-2.083270	1.087680	0.238640	-2.008810	0.678530	0.036490	-2.053850	0.493510	0.056850	-2.087520	0.295850	0.043800	-2.076480	0.088880	0.085210	-2.126790	0.099130	0.128360	-1.923680	0.049590	0.132370	-2.025280	0.682090	0.374950	-2.043820	0.493450	0.353980	-2.065560	0.317720	0.364500	-2.055290	0.089490	0.316070	-2.107240	0.107700	0.274650	-1.900030	0.049300	0.281590	-1.953350	0.041630	0.350470	-1.974280	0.041180	0.049420	-2.043740	0.491130	0.251830	-2.065090	0.483850	0.160220	
